<?xml version="1.0" standalone="no"?>
<!DOCTYPE svg PUBLIC "-//W3C//DTD SVG 20010904//EN"
 "http://www.w3.org/TR/2001/REC-SVG-20010904/DTD/svg10.dtd">
<svg version="1.0" xmlns="http://www.w3.org/2000/svg"
 width="512.000000pt" height="512.000000pt" viewBox="0 0 512.000000 512.000000"
 preserveAspectRatio="xMidYMid meet">
<metadata>
Created by potrace 1.11, written by Peter Selinger 2001-2013
</metadata>
<g transform="translate(0.000000,512.000000) scale(0.100000,-0.100000)"
fill="#000000" stroke="none">
<path d="M383 5105 c-182 -49 -320 -189 -368 -372 -23 -86 -23 -3200 0 -3286
48 -185 187 -324 372 -372 48 -13 182 -15 865 -15 l808 0 0 -230 0 -230 -62 0
c-284 0 -496 -177 -531 -440 -10 -74 -9 -82 10 -108 11 -15 31 -33 44 -39 19
-10 255 -13 1046 -13 l1023 0 31 28 c39 35 48 93 25 180 -61 238 -260 392
-508 392 l-78 0 0 230 0 230 808 0 c683 0 817 2 865 15 185 48 324 187 372
372 23 86 23 3200 0 3286 -48 185 -187 324 -372 372 -84 22 -4269 21 -4350 0z
m4358 -211 c60 -28 125 -93 153 -153 l21 -46 3 -1317 2 -1318 -230 0 -230 0
-2 1171 -3 1171 -33 29 -33 30 -435 -3 -436 -3 -29 -33 -29 -32 0 -1165 0
-1165 -250 0 -250 0 0 38 c-1 226 -36 720 -68 940 l-17 119 58 64 c60 65 87
108 114 183 37 104 34 248 -9 349 -12 28 -104 194 -203 367 -159 277 -186 317
-217 333 -42 21 -78 15 -109 -17 -42 -44 -389 -660 -409 -727 -51 -171 -4
-360 122 -495 l29 -31 -20 -144 c-35 -249 -71 -722 -71 -941 l0 -38 -250 0
-250 0 0 760 0 760 -212 424 c-219 438 -230 456 -288 456 -58 0 -69 -18 -288
-456 l-212 -424 0 -760 0 -760 -230 0 -230 0 0 1298 c0 1412 -2 1349 55 1433
36 51 88 90 150 111 47 16 180 17 2170 15 l2120 -2 46 -21z m-481 -734 l0
-100 -60 0 c-71 0 -107 -15 -126 -51 -17 -34 -18 -60 -2 -94 17 -38 58 -55
128 -55 l60 0 0 -150 0 -150 -60 0 c-71 0 -107 -15 -126 -51 -27 -52 -8 -115
41 -137 14 -7 53 -12 85 -12 l60 0 0 -150 0 -150 -60 0 c-70 0 -111 -17 -128
-55 -23 -51 -7 -107 39 -131 16 -8 55 -14 89 -14 l60 0 0 -200 0 -200 -60 0
c-71 0 -107 -15 -126 -51 -27 -52 -8 -115 41 -137 14 -7 53 -12 85 -12 l60 0
0 -100 0 -100 -300 0 -300 0 0 1100 0 1100 300 0 300 0 0 -100z m-1544 -235
c69 -121 133 -235 141 -254 24 -56 19 -161 -10 -224 -47 -103 -137 -167 -248
-175 -98 -7 -160 17 -229 87 -83 84 -112 201 -76 302 21 58 279 500 287 492 4
-4 65 -107 135 -228z m-1438 -30 c61 -124 112 -227 112 -230 0 -3 -103 -5
-230 -5 -126 0 -230 2 -230 5 0 10 225 455 230 455 3 0 56 -101 118 -225z
m-218 -1135 l0 -700 -100 0 -100 0 0 700 0 700 100 0 100 0 0 -700z m400 0 l0
-700 -100 0 -100 0 0 700 0 700 100 0 100 0 0 -700z m1237 223 c12 -89 39
-360 46 -465 l4 -58 -187 0 -186 0 3 33 c1 17 7 93 13 167 10 124 34 330 46
390 l5 25 122 -2 122 -2 12 -88z"/>
</g>
</svg>
